# xmcd
#
# Track frame offsets: 
#        150
#        18207
#        33472
#        53852
#        74450
#        93052
#        118057
#        131822
#        149725
#        167842
#        193390
#        212582
#        230134
#        250292
#        273125
#        311622
#
# Disc length: 4284 seconds
#
# Revision: 1
# Processed by: cddbd v1.5.2PL0 Copyright (c) Steve Scherf et al.
# Submitted via: ExactAudioCopy v0.99pb3
#
DISCID=f310ba10
DTITLE=Rich DelGrossso - Get Your Nose Outta My Bizness!
DYEAR=2005
DGENRE=Blues
TTITLE0=Get Your Nose Outta My Bizness!
TTITLE1=Big Fat Mama Jam
TTITLE2=Can't Be Satisfied
TTITLE3=Can't Save A Dollar
TTITLE4=Divin' Duck Blues
TTITLE5=I Smell Trouble
TTITLE6=Early In The Morning
TTITLE7=Lucy Mae Blues
TTITLE8=Smokin' and Jokin' with Pinetop
TTITLE9=Outskirts Of Town
TTITLE10=Walkin' Blues
TTITLE11=Too Many Dirty Dishes
TTITLE12=That's Alright
TTITLE13=When Things Go Wrong
TTITLE14=You Done Told Everybody
TTITLE15=How Long Blues
EXTD=
EXTT0=
EXTT1=
EXTT2=
EXTT3=
EXTT4=
EXTT5=
EXTT6=
EXTT7=
EXTT8=
EXTT9=
EXTT10=
EXTT11=
EXTT12=
EXTT13=
EXTT14=
EXTT15=
PLAYORDER=
